<svg width="810" height="99" viewBox="0 0 810 99" fill="none" xmlns="http://www.w3.org/2000/svg">
<rect y="35.6611" width="18.4528" height="27.6792" rx="9.22641" fill="#E7000B"/>
<rect x="21.8276" y="17.208" width="18.4528" height="64.5848" rx="9.22641" fill="white"/>
<rect x="43.6555" y="31.0479" width="18.4528" height="36.9056" rx="9.22641" fill="#E7000B"/>
<rect x="65.4834" y="17.208" width="18.4528" height="64.5848" rx="9.22641" fill="#FFB900"/>
<rect x="87.3115" y="35.6611" width="18.4528" height="27.6792" rx="9.22641" fill="white"/>
<path d="M145.155 79V22.3H169.698C174.774 22.3 179.148 23.137 182.82 24.811C186.492 26.431 189.327 28.78 191.325 31.858C193.323 34.936 194.322 38.608 194.322 42.874C194.322 47.086 193.323 50.731 191.325 53.809C189.327 56.833 186.492 59.155 182.82 60.775C179.148 62.395 174.774 63.205 169.698 63.205H152.445L158.277 57.454V79H145.155ZM181.2 79L167.025 58.426H181.038L195.375 79H181.2ZM158.277 58.912L152.445 52.756H168.969C173.019 52.756 176.043 51.892 178.041 50.164C180.039 48.382 181.038 45.952 181.038 42.874C181.038 39.742 180.039 37.312 178.041 35.584C176.043 33.856 173.019 32.992 168.969 32.992H152.445L158.277 26.755V58.912ZM229.504 79.648C224.536 79.648 220.162 78.676 216.382 76.732C212.656 74.788 209.767 72.142 207.715 68.794C205.663 65.392 204.637 61.531 204.637 57.211C204.637 52.837 205.636 48.976 207.634 45.628C209.686 42.226 212.467 39.58 215.977 37.69C219.487 35.746 223.456 34.774 227.884 34.774C232.15 34.774 235.984 35.692 239.386 37.528C242.842 39.31 245.569 41.902 247.567 45.304C249.565 48.652 250.564 52.675 250.564 57.373C250.564 57.859 250.537 58.426 250.483 59.074C250.429 59.668 250.375 60.235 250.321 60.775H214.924V53.404H243.679L238.819 55.591C238.819 53.323 238.36 51.352 237.442 49.678C236.524 48.004 235.255 46.708 233.635 45.79C232.015 44.818 230.125 44.332 227.965 44.332C225.805 44.332 223.888 44.818 222.214 45.79C220.594 46.708 219.325 48.031 218.407 49.759C217.489 51.433 217.03 53.431 217.03 55.753V57.697C217.03 60.073 217.543 62.179 218.569 64.015C219.649 65.797 221.134 67.174 223.024 68.146C224.968 69.064 227.236 69.523 229.828 69.523C232.15 69.523 234.175 69.172 235.903 68.47C237.685 67.768 239.305 66.715 240.763 65.311L247.486 72.601C245.488 74.869 242.977 76.624 239.953 77.866C236.929 79.054 233.446 79.648 229.504 79.648ZM284.087 79.648C279.389 79.648 275.204 78.703 271.532 76.813C267.86 74.869 264.971 72.196 262.865 68.794C260.813 65.392 259.787 61.531 259.787 57.211C259.787 52.837 260.813 48.976 262.865 45.628C264.971 42.226 267.86 39.58 271.532 37.69C275.204 35.746 279.389 34.774 284.087 34.774C288.677 34.774 292.673 35.746 296.075 37.69C299.477 39.58 301.988 42.307 303.608 45.871L293.807 51.136C292.673 49.084 291.242 47.572 289.514 46.6C287.84 45.628 286.004 45.142 284.006 45.142C281.846 45.142 279.902 45.628 278.174 46.6C276.446 47.572 275.069 48.949 274.043 50.731C273.071 52.513 272.585 54.673 272.585 57.211C272.585 59.749 273.071 61.909 274.043 63.691C275.069 65.473 276.446 66.85 278.174 67.822C279.902 68.794 281.846 69.28 284.006 69.28C286.004 69.28 287.84 68.821 289.514 67.903C291.242 66.931 292.673 65.392 293.807 63.286L303.608 68.632C301.988 72.142 299.477 74.869 296.075 76.813C292.673 78.703 288.677 79.648 284.087 79.648ZM335.115 79.648C330.471 79.648 326.34 78.676 322.722 76.732C319.158 74.788 316.323 72.142 314.217 68.794C312.165 65.392 311.139 61.531 311.139 57.211C311.139 52.837 312.165 48.976 314.217 45.628C316.323 42.226 319.158 39.58 322.722 37.69C326.34 35.746 330.471 34.774 335.115 34.774C339.705 34.774 343.809 35.746 347.427 37.69C351.045 39.58 353.88 42.199 355.932 45.547C357.984 48.895 359.01 52.783 359.01 57.211C359.01 61.531 357.984 65.392 355.932 68.794C353.88 72.142 351.045 74.788 347.427 76.732C343.809 78.676 339.705 79.648 335.115 79.648ZM335.115 69.28C337.221 69.28 339.111 68.794 340.785 67.822C342.459 66.85 343.782 65.473 344.754 63.691C345.726 61.855 346.212 59.695 346.212 57.211C346.212 54.673 345.726 52.513 344.754 50.731C343.782 48.949 342.459 47.572 340.785 46.6C339.111 45.628 337.221 45.142 335.115 45.142C333.009 45.142 331.119 45.628 329.445 46.6C327.771 47.572 326.421 48.949 325.395 50.731C324.423 52.513 323.937 54.673 323.937 57.211C323.937 59.695 324.423 61.855 325.395 63.691C326.421 65.473 327.771 66.85 329.445 67.822C331.119 68.794 333.009 69.28 335.115 69.28ZM427.316 34.774C430.772 34.774 433.823 35.476 436.469 36.88C439.169 38.23 441.275 40.336 442.787 43.198C444.353 46.006 445.136 49.624 445.136 54.052V79H432.5V55.996C432.5 52.486 431.771 49.894 430.313 48.22C428.855 46.546 426.803 45.709 424.157 45.709C422.321 45.709 420.674 46.141 419.216 47.005C417.758 47.815 416.624 49.057 415.814 50.731C415.004 52.405 414.599 54.538 414.599 57.13V79H401.963V55.996C401.963 52.486 401.234 49.894 399.776 48.22C398.372 46.546 396.347 45.709 393.701 45.709C391.865 45.709 390.218 46.141 388.76 47.005C387.302 47.815 386.168 49.057 385.358 50.731C384.548 52.405 384.143 54.538 384.143 57.13V79H371.507V35.422H383.576V47.329L381.308 43.846C382.82 40.876 384.953 38.635 387.707 37.123C390.515 35.557 393.701 34.774 397.265 34.774C401.261 34.774 404.744 35.8 407.714 37.852C410.738 39.85 412.736 42.928 413.708 47.086L409.253 45.871C410.711 42.469 413.033 39.769 416.219 37.771C419.459 35.773 423.158 34.774 427.316 34.774ZM486.27 79.648C482.598 79.648 479.385 78.838 476.631 77.218C473.877 75.598 471.717 73.141 470.151 69.847C468.639 66.499 467.883 62.287 467.883 57.211C467.883 52.081 468.612 47.869 470.07 44.575C471.528 41.281 473.634 38.824 476.388 37.204C479.142 35.584 482.436 34.774 486.27 34.774C490.374 34.774 494.046 35.719 497.286 37.609C500.58 39.445 503.172 42.037 505.062 45.385C507.006 48.733 507.978 52.675 507.978 57.211C507.978 61.801 507.006 65.77 505.062 69.118C503.172 72.466 500.58 75.058 497.286 76.894C494.046 78.73 490.374 79.648 486.27 79.648ZM460.512 94.714V35.422H472.581V44.332L472.338 57.292L473.148 70.171V94.714H460.512ZM484.083 69.28C486.189 69.28 488.052 68.794 489.672 67.822C491.346 66.85 492.669 65.473 493.641 63.691C494.667 61.855 495.18 59.695 495.18 57.211C495.18 54.673 494.667 52.513 493.641 50.731C492.669 48.949 491.346 47.572 489.672 46.6C488.052 45.628 486.189 45.142 484.083 45.142C481.977 45.142 480.087 45.628 478.413 46.6C476.739 47.572 475.416 48.949 474.444 50.731C473.472 52.513 472.986 54.673 472.986 57.211C472.986 59.695 473.472 61.855 474.444 63.691C475.416 65.473 476.739 66.85 478.413 67.822C480.087 68.794 481.977 69.28 484.083 69.28ZM520.486 79V35.422H532.555V47.734L530.854 44.17C532.15 41.092 534.229 38.77 537.091 37.204C539.953 35.584 543.436 34.774 547.54 34.774V46.438C547 46.384 546.514 46.357 546.082 46.357C545.65 46.303 545.191 46.276 544.705 46.276C541.249 46.276 538.441 47.275 536.281 49.273C534.175 51.217 533.122 54.268 533.122 58.426V79H520.486ZM582.986 79V70.495L582.176 68.632V53.404C582.176 50.704 581.339 48.598 579.665 47.086C578.045 45.574 575.534 44.818 572.132 44.818C569.81 44.818 567.515 45.196 565.247 45.952C563.033 46.654 561.143 47.626 559.577 48.868L555.041 40.039C557.417 38.365 560.279 37.069 563.627 36.151C566.975 35.233 570.377 34.774 573.833 34.774C580.475 34.774 585.632 36.34 589.304 39.472C592.976 42.604 594.812 47.491 594.812 54.133V79H582.986ZM569.702 79.648C566.3 79.648 563.384 79.081 560.954 77.947C558.524 76.759 556.661 75.166 555.365 73.168C554.069 71.17 553.421 68.929 553.421 66.445C553.421 63.853 554.042 61.585 555.284 59.641C556.58 57.697 558.605 56.185 561.359 55.105C564.113 53.971 567.704 53.404 572.132 53.404H583.715V60.775H573.509C570.539 60.775 568.487 61.261 567.353 62.233C566.273 63.205 565.733 64.42 565.733 65.878C565.733 67.498 566.354 68.794 567.596 69.766C568.892 70.684 570.647 71.143 572.861 71.143C574.967 71.143 576.857 70.657 578.531 69.685C580.205 68.659 581.42 67.174 582.176 65.23L584.12 71.062C583.202 73.87 581.528 76.003 579.098 77.461C576.668 78.919 573.536 79.648 569.702 79.648ZM638.324 79.972C633.95 79.972 629.873 79.27 626.093 77.866C622.367 76.408 619.127 74.356 616.373 71.71C613.619 69.064 611.459 65.959 609.893 62.395C608.381 58.831 607.625 54.916 607.625 50.65C607.625 46.384 608.381 42.469 609.893 38.905C611.459 35.341 613.619 32.236 616.373 29.59C619.181 26.944 622.448 24.919 626.174 23.515C629.9 22.057 633.977 21.328 638.405 21.328C643.319 21.328 647.747 22.192 651.689 23.92C655.685 25.594 659.033 28.078 661.733 31.372L653.309 39.148C651.365 36.934 649.205 35.287 646.829 34.207C644.453 33.073 641.861 32.506 639.053 32.506C636.407 32.506 633.977 32.938 631.763 33.802C629.549 34.666 627.632 35.908 626.012 37.528C624.392 39.148 623.123 41.065 622.205 43.279C621.341 45.493 620.909 47.95 620.909 50.65C620.909 53.35 621.341 55.807 622.205 58.021C623.123 60.235 624.392 62.152 626.012 63.772C627.632 65.392 629.549 66.634 631.763 67.498C633.977 68.362 636.407 68.794 639.053 68.794C641.861 68.794 644.453 68.254 646.829 67.174C649.205 66.04 651.365 64.339 653.309 62.071L661.733 69.847C659.033 73.141 655.685 75.652 651.689 77.38C647.747 79.108 643.292 79.972 638.324 79.972ZM674.645 79V22.3H699.188C704.264 22.3 708.638 23.137 712.31 24.811C715.982 26.431 718.817 28.78 720.815 31.858C722.813 34.936 723.812 38.608 723.812 42.874C723.812 47.086 722.813 50.731 720.815 53.809C718.817 56.833 715.982 59.155 712.31 60.775C708.638 62.395 704.264 63.205 699.188 63.205H681.935L687.767 57.454V79H674.645ZM710.69 79L696.515 58.426H710.528L724.865 79H710.69ZM687.767 58.912L681.935 52.756H698.459C702.509 52.756 705.533 51.892 707.531 50.164C709.529 48.382 710.528 45.952 710.528 42.874C710.528 39.742 709.529 37.312 707.531 35.584C705.533 33.856 702.509 32.992 698.459 32.992H681.935L687.767 26.755V58.912ZM738.258 79V22.3H749.112L773.25 62.314H767.499L791.232 22.3H802.005L802.167 79H789.855L789.774 41.173H792.042L773.088 73.006H767.175L747.816 41.173H750.57V79H738.258Z" fill="black"/>
</svg>
